<svg width="143" height="36" viewBox="0 0 143 36" fill="none" xmlns="http://www.w3.org/2000/svg">
<path id="Logo" opacity="0.5" d="M0.406875 35V1.4H9.91088V27.464H25.9429V35H0.406875ZM46.1321 35.672C43.4441 35.672 40.9641 35.24 38.6921 34.376C36.4201 33.512 34.4361 32.296 32.7401 30.728C31.0761 29.128 29.7801 27.272 28.8521 25.16C27.9241 23.048 27.4601 20.728 27.4601 18.2C27.4601 15.672 27.9241 13.352 28.8521 11.24C29.7801 9.128 31.0761 7.288 32.7401 5.72C34.4361 4.12 36.4201 2.888 38.6921 2.024C40.9641 1.16 43.4441 0.727998 46.1321 0.727998C48.8521 0.727998 51.3321 1.16 53.5721 2.024C55.8441 2.888 57.8121 4.12 59.4761 5.72C61.1401 7.288 62.4361 9.128 63.3641 11.24C64.3241 13.352 64.8041 15.672 64.8041 18.2C64.8041 20.728 64.3241 23.064 63.3641 25.208C62.4361 27.32 61.1401 29.16 59.4761 30.728C57.8121 32.296 55.8441 33.512 53.5721 34.376C51.3321 35.24 48.8521 35.672 46.1321 35.672ZM46.1321 27.8C47.4121 27.8 48.5961 27.576 49.6841 27.128C50.8041 26.68 51.7641 26.04 52.5641 25.208C53.3961 24.344 54.0361 23.32 54.4841 22.136C54.9641 20.952 55.2041 19.64 55.2041 18.2C55.2041 16.728 54.9641 15.416 54.4841 14.264C54.0361 13.08 53.3961 12.072 52.5641 11.24C51.7641 10.376 50.8041 9.72 49.6841 9.272C48.5961 8.824 47.4121 8.6 46.1321 8.6C44.8521 8.6 43.6521 8.824 42.5321 9.272C41.4441 9.72 40.4841 10.376 39.6521 11.24C38.8521 12.072 38.2121 13.08 37.7321 14.264C37.2841 15.416 37.0601 16.728 37.0601 18.2C37.0601 19.64 37.2841 20.952 37.7321 22.136C38.2121 23.32 38.8521 24.344 39.6521 25.208C40.4841 26.04 41.4441 26.68 42.5321 27.128C43.6521 27.576 44.8521 27.8 46.1321 27.8ZM86.5819 35.672C83.9259 35.672 81.4619 35.256 79.1899 34.424C76.9179 33.56 74.9499 32.344 73.2859 30.776C71.6539 29.208 70.3739 27.368 69.4459 25.256C68.5179 23.112 68.0539 20.76 68.0539 18.2C68.0539 15.64 68.5179 13.304 69.4459 11.192C70.3739 9.048 71.6699 7.192 73.3339 5.624C74.9979 4.056 76.9659 2.856 79.2379 2.024C81.5419 1.16 84.0539 0.727998 86.7739 0.727998C89.9419 0.727998 92.7739 1.256 95.2699 2.312C97.7659 3.368 99.8299 4.888 101.462 6.872L95.4139 12.344C94.2619 11.096 93.0139 10.168 91.6699 9.56C90.3579 8.92 88.8859 8.6 87.2539 8.6C85.8139 8.6 84.5019 8.824 83.3179 9.272C82.1339 9.72 81.1259 10.376 80.2939 11.24C79.4619 12.072 78.8059 13.08 78.3259 14.264C77.8779 15.416 77.6539 16.728 77.6539 18.2C77.6539 19.608 77.8779 20.904 78.3259 22.088C78.8059 23.272 79.4619 24.296 80.2939 25.16C81.1259 25.992 82.1179 26.648 83.2699 27.128C84.4539 27.576 85.7499 27.8 87.1579 27.8C88.5659 27.8 89.9419 27.576 91.2859 27.128C92.6299 26.648 93.9899 25.848 95.3659 24.728L100.694 31.4C98.7739 32.776 96.5499 33.832 94.0219 34.568C91.4939 35.304 89.0139 35.672 86.5819 35.672ZM92.2939 30.152V17.48H100.694V31.4L92.2939 30.152ZM123.663 35.672C120.975 35.672 118.495 35.24 116.223 34.376C113.951 33.512 111.967 32.296 110.271 30.728C108.607 29.128 107.311 27.272 106.383 25.16C105.455 23.048 104.991 20.728 104.991 18.2C104.991 15.672 105.455 13.352 106.383 11.24C107.311 9.128 108.607 7.288 110.271 5.72C111.967 4.12 113.951 2.888 116.223 2.024C118.495 1.16 120.975 0.727998 123.663 0.727998C126.383 0.727998 128.863 1.16 131.103 2.024C133.375 2.888 135.343 4.12 137.007 5.72C138.671 7.288 139.967 9.128 140.895 11.24C141.855 13.352 142.335 15.672 142.335 18.2C142.335 20.728 141.855 23.064 140.895 25.208C139.967 27.32 138.671 29.16 137.007 30.728C135.343 32.296 133.375 33.512 131.103 34.376C128.863 35.24 126.383 35.672 123.663 35.672ZM123.663 27.8C124.943 27.8 126.127 27.576 127.215 27.128C128.335 26.68 129.295 26.04 130.095 25.208C130.927 24.344 131.567 23.32 132.015 22.136C132.495 20.952 132.735 19.64 132.735 18.2C132.735 16.728 132.495 15.416 132.015 14.264C131.567 13.08 130.927 12.072 130.095 11.24C129.295 10.376 128.335 9.72 127.215 9.272C126.127 8.824 124.943 8.6 123.663 8.6C122.383 8.6 121.183 8.824 120.063 9.272C118.975 9.72 118.015 10.376 117.183 11.24C116.383 12.072 115.743 13.08 115.263 14.264C114.815 15.416 114.591 16.728 114.591 18.2C114.591 19.64 114.815 20.952 115.263 22.136C115.743 23.32 116.383 24.344 117.183 25.208C118.015 26.04 118.975 26.68 120.063 27.128C121.183 27.576 122.383 27.8 123.663 27.8Z" fill="white"/>
</svg>
