<svg width="69" height="69" viewBox="0 0 69 69" fill="none" xmlns="http://www.w3.org/2000/svg">
<rect width="69" height="69" rx="34.5" fill="#F2632A"/>
<path d="M30.7475 43.3375C30.5575 43.3375 30.3675 43.2675 30.2175 43.1175C29.9275 42.8275 29.9275 42.3475 30.2175 42.0575L36.7375 35.5375C37.2175 35.0575 37.2175 34.2775 36.7375 33.7975L30.2175 27.2775C29.9275 26.9875 29.9275 26.5075 30.2175 26.2175C30.5075 25.9275 30.9875 25.9275 31.2775 26.2175L37.7975 32.7375C38.3075 33.2475 38.5975 33.9375 38.5975 34.6675C38.5975 35.3975 38.3175 36.0875 37.7975 36.5975L31.2775 43.1175C31.1275 43.2575 30.9375 43.3375 30.7475 43.3375Z" fill="white"/>
</svg>
